<svg width="320" height="640" viewBox="0 0 320 640" fill="none" xmlns="http://www.w3.org/2000/svg">
  <defs>
    <linearGradient id="headerGradient" x1="0%" y1="0%" x2="100%" y2="100%">
      <stop offset="0%" stop-color="#6366f1"/>
      <stop offset="100%" stop-color="#818cf8"/>
    </linearGradient>
  </defs>

  <!-- iPhone Frame -->
  <rect width="320" height="640" rx="48" fill="#1e293b"/>
  <rect x="12" y="12" width="296" height="616" rx="40" fill="#fefce8"/>

  <!-- Status Bar -->
  <rect x="130" y="24" width="60" height="24" rx="12" fill="#1e293b"/>

  <!-- App Header -->
  <rect x="28" y="72" width="264" height="40" rx="8" fill="url(#headerGradient)"/>
  <text x="160" y="100" text-anchor="middle" font-family="-apple-system, sans-serif" font-size="16" font-weight="600" fill="white">ChoreUp</text>

  <!-- Child Card -->
  <rect x="28" y="130" width="264" height="100" rx="16" fill="white" stroke="#e2e8f0"/>
  <circle cx="78" cy="180" r="30" fill="#818cf8"/>
  <text x="78" y="188" text-anchor="middle" font-family="-apple-system, sans-serif" font-size="24" font-weight="600" fill="white">E</text>
  <text x="130" y="168" font-family="-apple-system, sans-serif" font-size="18" font-weight="600" fill="#1e293b">Emma</text>
  <text x="130" y="192" font-family="-apple-system, sans-serif" font-size="14" fill="#64748b">3 chores today</text>
  <circle cx="252" cy="180" r="20" fill="#f59e0b"/>
  <text x="252" y="186" text-anchor="middle" font-family="-apple-system, sans-serif" font-size="12" font-weight="700" fill="white">25</text>

  <!-- Chore Items -->
  <rect x="28" y="248" width="264" height="60" rx="12" fill="white" stroke="#e2e8f0"/>
  <rect x="44" y="264" width="28" height="28" rx="6" fill="#10b981"/>
  <text x="58" y="284" text-anchor="middle" font-family="-apple-system, sans-serif" font-size="16" fill="white">✓</text>
  <text x="88" y="285" font-family="-apple-system, sans-serif" font-size="14" fill="#1e293b">Make bed</text>
  <text x="252" y="285" text-anchor="middle" font-family="-apple-system, sans-serif" font-size="12" font-weight="600" fill="#f59e0b">+5</text>

  <rect x="28" y="320" width="264" height="60" rx="12" fill="white" stroke="#e2e8f0"/>
  <rect x="44" y="336" width="28" height="28" rx="6" fill="#e2e8f0"/>
  <text x="88" y="357" font-family="-apple-system, sans-serif" font-size="14" fill="#1e293b">Feed the dog</text>
  <text x="252" y="357" text-anchor="middle" font-family="-apple-system, sans-serif" font-size="12" font-weight="600" fill="#f59e0b">+5</text>

  <rect x="28" y="392" width="264" height="60" rx="12" fill="white" stroke="#e2e8f0"/>
  <rect x="44" y="408" width="28" height="28" rx="6" fill="#e2e8f0"/>
  <text x="88" y="429" font-family="-apple-system, sans-serif" font-size="14" fill="#1e293b">Clean room</text>
  <text x="252" y="429" text-anchor="middle" font-family="-apple-system, sans-serif" font-size="12" font-weight="600" fill="#f59e0b">+10</text>

  <!-- Bottom Tab Bar -->
  <rect x="28" y="568" width="264" height="56" rx="28" fill="white" stroke="#e2e8f0"/>
  <text x="80" y="602" text-anchor="middle" font-family="-apple-system, sans-serif" font-size="10" fill="#6366f1">Home</text>
  <text x="160" y="602" text-anchor="middle" font-family="-apple-system, sans-serif" font-size="10" fill="#64748b">Rewards</text>
  <text x="240" y="602" text-anchor="middle" font-family="-apple-system, sans-serif" font-size="10" fill="#64748b">Settings</text>

  <!-- Home Indicator -->
  <rect x="110" y="620" width="100" height="4" rx="2" fill="#1e293b"/>
</svg>
