<svg width="320" height="640" viewBox="0 0 320 640" fill="none" xmlns="http://www.w3.org/2000/svg">
  <!-- iPhone Frame -->
  <rect width="320" height="640" rx="48" fill="#1A1A1A"/>
  <rect x="12" y="12" width="296" height="616" rx="40" fill="#F5F3EE"/>

  <!-- Status Bar -->
  <rect x="130" y="24" width="60" height="24" rx="12" fill="#1A1A1A"/>

  <!-- App Content Placeholder -->
  <rect x="28" y="72" width="264" height="40" rx="8" fill="#34C759"/>
  <text x="160" y="100" text-anchor="middle" font-family="-apple-system, sans-serif" font-size="16" font-weight="600" fill="white">ChoreUp</text>

  <!-- Child Card -->
  <rect x="28" y="130" width="264" height="100" rx="16" fill="white" stroke="#E5E5E5"/>
  <circle cx="78" cy="180" r="30" fill="#9B7BDC"/>
  <text x="78" y="188" text-anchor="middle" font-family="-apple-system, sans-serif" font-size="24" font-weight="600" fill="white">E</text>
  <text x="130" y="168" font-family="-apple-system, sans-serif" font-size="18" font-weight="600" fill="#1A1A1A">Emma</text>
  <text x="130" y="192" font-family="-apple-system, sans-serif" font-size="14" fill="#888888">3 chores today</text>
  <circle cx="252" cy="180" r="20" fill="#F5A623"/>
  <text x="252" y="186" text-anchor="middle" font-family="-apple-system, sans-serif" font-size="12" font-weight="700" fill="white">25</text>

  <!-- Chore Items -->
  <rect x="28" y="248" width="264" height="60" rx="12" fill="white" stroke="#E5E5E5"/>
  <rect x="44" y="264" width="28" height="28" rx="6" fill="#34C759"/>
  <text x="58" y="284" text-anchor="middle" font-family="-apple-system, sans-serif" font-size="16" fill="white">✓</text>
  <text x="88" y="285" font-family="-apple-system, sans-serif" font-size="14" fill="#1A1A1A">Make bed</text>
  <text x="252" y="285" text-anchor="middle" font-family="-apple-system, sans-serif" font-size="12" font-weight="600" fill="#F5A623">+5</text>

  <rect x="28" y="320" width="264" height="60" rx="12" fill="white" stroke="#E5E5E5"/>
  <rect x="44" y="336" width="28" height="28" rx="6" fill="#E5E5E5"/>
  <text x="88" y="357" font-family="-apple-system, sans-serif" font-size="14" fill="#1A1A1A">Feed the dog</text>
  <text x="252" y="357" text-anchor="middle" font-family="-apple-system, sans-serif" font-size="12" font-weight="600" fill="#F5A623">+5</text>

  <rect x="28" y="392" width="264" height="60" rx="12" fill="white" stroke="#E5E5E5"/>
  <rect x="44" y="408" width="28" height="28" rx="6" fill="#E5E5E5"/>
  <text x="88" y="429" font-family="-apple-system, sans-serif" font-size="14" fill="#1A1A1A">Clean room</text>
  <text x="252" y="429" text-anchor="middle" font-family="-apple-system, sans-serif" font-size="12" font-weight="600" fill="#F5A623">+10</text>

  <!-- Bottom Tab Bar -->
  <rect x="28" y="568" width="264" height="56" rx="28" fill="white" stroke="#E5E5E5"/>
  <text x="80" y="602" text-anchor="middle" font-family="-apple-system, sans-serif" font-size="10" fill="#34C759">Home</text>
  <text x="160" y="602" text-anchor="middle" font-family="-apple-system, sans-serif" font-size="10" fill="#888888">Rewards</text>
  <text x="240" y="602" text-anchor="middle" font-family="-apple-system, sans-serif" font-size="10" fill="#888888">Settings</text>

  <!-- Home Indicator -->
  <rect x="110" y="620" width="100" height="4" rx="2" fill="#1A1A1A"/>
</svg>
